<?xml version="1.0" encoding="utf-8"?>
<!-- Generator: Adobe Illustrator 23.0.3, SVG Export Plug-In . SVG Version: 6.00 Build 0)  -->
<svg version="1.1" id="Layer_1" xmlns="http://www.w3.org/2000/svg" xmlns:xlink="http://www.w3.org/1999/xlink" x="0px" y="0px"
	 viewBox="0 0 904 862" style="enable-background:new 0 0 904 862;" xml:space="preserve">
<style type="text/css">
	.st0{fill-rule:evenodd;clip-rule:evenodd;fill:#E5E9ED;}
</style>
<g>
	<g>
		<path class="st0" d="M169.5,0.1L169.5,0.1l-21-0.1v0.1c-3,0-6.4,0-10,0V0h-21v0.1c-3.2,0-6.5,0-10,0V0h-21v0c-3.2,0-6.5,0-10,0v0
			h-21v0c-3.2,0-6.6,0-10,0v0h-21v0C16.7,0,8.6,0,0,0c0,6.9,5.6,13,12.5,13h12v849.1h21V13h10v849.1h21V13h10v849.1h21V13h10v849.1
			h21V13h10v849.1h21V13h12c6.9,0,12.5-6.1,12.5-13C181.7,0.1,191.2,0.1,169.5,0.1z M879.5,0.1L879.5,0.1l-21-0.1v0.1
			c-3,0-6.4,0-10,0V0h-21v0.1c-3.2,0-6.5,0-10,0V0h-21v0c-3.2,0-6.5,0-10,0v0h-21v0c-3.2,0-6.6,0-10,0v0h-21v0c-7.8,0-15.9,0-24.5,0
			c0,6.9,5.6,13,12.5,13h12v849.1h21V13h10v849.1h21V13h10v849.1h21V13h10v849.1h21V13h10v849.1h21V13h12c6.9,0,12.5-6.1,12.5-13
			C891.7,0.1,901.2,0.1,879.5,0.1z"/>
	</g>
</g>
</svg>
