<?xml version="1.0" encoding="utf-8"?>
<!-- Generator: Adobe Illustrator 23.0.3, SVG Export Plug-In . SVG Version: 6.00 Build 0)  -->
<svg version="1.1" id="Layer_1" xmlns="http://www.w3.org/2000/svg" xmlns:xlink="http://www.w3.org/1999/xlink" x="0px" y="0px"
	 viewBox="0 0 65 73" style="enable-background:new 0 0 65 73;" xml:space="preserve">
<style type="text/css">
	.st0{fill-rule:evenodd;clip-rule:evenodd;fill:#FDFEFF;}
</style>
<g>
	<g>
		<path class="st0" d="M37.8,24h18.1l0-3H37.8V24z M3.5,51.6h12l1.2-2.2H2.4L3.5,51.6z M31,17.9v44.2l3,0V17.8
			c3.9-0.9,6.9-4.4,6.9-8.6c0-4.9-3.9-8.8-8.8-8.8c-4.9,0-8.8,3.9-8.8,8.8C23.3,13.7,26.7,17.4,31,17.9z M32.1,2.8
			c3.5,0,6.3,2.8,6.3,6.3c0,3.5-2.8,6.3-6.3,6.3c-3.5,0-6.3-2.8-6.3-6.3C25.8,5.7,28.6,2.8,32.1,2.8z M49.5,51.6h12l1.2-2.2H48.4
			L49.5,51.6z M57,27.4h-3l-7.9,17.8l1.8,1.9h15.5l1.6-1.9L57,27.4z M49.2,44.8l6.4-13.5l6.3,13.5H49.2z M8.1,27.4L0.2,45.2L2,47.1
			h15.5l1.6-1.9l-8-17.7H8.1z M3.2,44.8l6.4-13.5l6.3,13.5H3.2z M37.8,65.4L32.5,69l-5.3-3.6V29.7h-3V67l8.3,5.6l8.3-5.6V29.7h-3
			V65.4z M27.3,21H9.2v3h18.1L27.3,21z"/>
	</g>
</g>
</svg>
