<?xml version="1.0" encoding="utf-8"?>
<!-- Generator: Adobe Illustrator 23.0.3, SVG Export Plug-In . SVG Version: 6.00 Build 0)  -->
<svg version="1.1" id="Layer_1" xmlns="http://www.w3.org/2000/svg" xmlns:xlink="http://www.w3.org/1999/xlink" x="0px" y="0px"
	 viewBox="0 0 100 100" style="enable-background:new 0 0 100 100;" xml:space="preserve">
<style type="text/css">
	.st0{fill-rule:evenodd;clip-rule:evenodd;fill:#0B2C4B;}
</style>
<path class="st0" d="M74.2,29.9l11.3,18.4c0,0-1.3,9.4-12.3,10.2c0,0-9.8,0.5-12.7-9.9l10.6-18.2l-15.9,0.1l-1,1.2L54.3,71H67
	c0,0,2-0.3,2,2s0,3.8,0,3.8S69,78,67.9,78C66.8,78,50,78,50,78V22.1c0,0,3.7-0.4,5.1,2.8h18.1c0,0,2.3-0.1,2.3,2.3
	C75.4,27.8,75.8,28.9,74.2,29.9z M73,32.7h-0.4l-9.1,15.4v0.4h19l0.1-0.6L73,32.7z M30.9,76.8c0,0,0-1.5,0-3.8s2-2,2-2h12.8
	l0.1-39.2l-1-1.2l-15.9-0.1l10.6,18.2c-2.9,10.4-12.7,9.9-12.7,9.9c-10.9-0.8-12.3-10.2-12.3-10.2l11.3-18.4c-1.5-1-1.2-2.1-1.3-2.8
	c0-2.4,2.3-2.3,2.3-2.3h18.1c1.4-3.2,5.1-2.8,5.1-2.8V78c0,0-16.8,0-17.9,0S30.9,76.8,30.9,76.8z M27,32.7l-9.6,15.2l0.1,0.6h19
	v-0.4l-9.1-15.4H27z"/>
</svg>
