<?xml version="1.0" encoding="utf-8"?>
<!-- Generator: Adobe Illustrator 23.0.3, SVG Export Plug-In . SVG Version: 6.00 Build 0)  -->
<svg version="1.1" id="Layer_1" xmlns="http://www.w3.org/2000/svg" xmlns:xlink="http://www.w3.org/1999/xlink" x="0px" y="0px"
	 viewBox="0 0 190 190" style="enable-background:new 0 0 190 190;" xml:space="preserve">
<style type="text/css">
	.st0{fill-rule:evenodd;clip-rule:evenodd;fill:#E30008;}
</style>
<g>
	<g>
		<path class="st0" d="M91.8,179.9c-0.9,0.7-1.5,1.7-1.7,2.8c-25.1-1.3-49.6-13.2-66-34.8C-5.5,109.1,2,53.5,40.9,23.9
			c14.8-11.3,32-17.1,49.2-18c0.1,0.8,0.4,1.5,0.9,2.1c1.5,2,4.4,2.4,6.4,0.9c2-1.5,2.4-4.4,0.9-6.4c-1.5-2-4.4-2.4-6.4-0.9
			c-0.9,0.7-1.5,1.7-1.7,2.7C72.5,5.3,55,11.2,40,22.7C0.4,52.8-7.2,109.3,22.9,148.9c16.7,22,41.6,34.1,67.2,35.4
			c0.1,0.7,0.4,1.5,0.9,2.1c1.5,2,4.4,2.4,6.4,0.9c2-1.5,2.4-4.4,0.9-6.4C96.7,178.8,93.8,178.4,91.8,179.9z"/>
	</g>
</g>
</svg>
