<?xml version="1.0" encoding="utf-8"?>
<!-- Generator: Adobe Illustrator 23.0.3, SVG Export Plug-In . SVG Version: 6.00 Build 0)  -->
<svg version="1.1" id="Layer_2" xmlns="http://www.w3.org/2000/svg" xmlns:xlink="http://www.w3.org/1999/xlink" x="0px" y="0px"
	 viewBox="0 0 100 100" style="enable-background:new 0 0 100 100;" xml:space="preserve">
<circle cx="4" cy="4" r="3"/>
<circle cx="47" cy="4" r="3"/>
<circle cx="4" cy="46" r="3"/>
<circle cx="15" cy="4" r="3"/>
<circle cx="15" cy="46" r="3"/>
<circle cx="25" cy="4" r="3"/>
<circle cx="25" cy="46" r="3"/>
<circle cx="36" cy="4" r="3"/>
<circle cx="36" cy="46" r="3"/>
<circle cx="47" cy="46" r="3"/>
<circle cx="4" cy="36" r="3"/>
<circle cx="47" cy="36" r="3"/>
<circle cx="4" cy="25" r="3"/>
<circle cx="47" cy="25" r="3"/>
<circle cx="4" cy="14" r="3"/>
<circle cx="47" cy="14" r="3"/>
<g>
	<g>
		<path d="M96.5,94.4c-14.3,0-28.7,0-43,0c0.7,0.7,1.4,1.4,2.1,2.1c0-14.3,0-28.7,0-43c-0.7,0.7-1.4,1.4-2.1,2.1c14.3,0,28.7,0,43,0
			c-0.7-0.7-1.4-1.4-2.1-2.1c0,14.3,0,28.7,0,43c0,2.7,4.2,2.7,4.2,0c0-14.3,0-28.7,0-43c0-1.1-1-2.1-2.1-2.1c-14.3,0-28.7,0-43,0
			c-1.1,0-2.1,1-2.1,2.1c0,14.3,0,28.7,0,43c0,1.1,1,2.1,2.1,2.1c14.3,0,28.7,0,43,0C99.2,98.6,99.2,94.4,96.5,94.4z"/>
	</g>
</g>
<g>
	<g>
		<path d="M29.2,82.1c2,2.7,4,5.3,6,8c0.6-1.1,1.2-2.1,1.8-3.2c-3.4,0-6.8,0-10.2,0c-7,0-15.1,0.7-18.9-6.5C4.9,75,6.1,67.9,6.1,62
			c0-2.7-4.2-2.7-4.2,0c0,7.3-1.2,15.5,3.1,21.9c6.8,10.1,21.6,7.2,32,7.2c1.5,0,2.8-1.8,1.8-3.2c-2-2.7-4-5.3-6-8
			C31.2,77.8,27.6,79.9,29.2,82.1L29.2,82.1z"/>
	</g>
</g>
<g>
	<g>
		<path d="M32.8,98.1c2-2.7,4-5.3,6-8c1.6-2.2-2-4.3-3.6-2.1c-2,2.7-4,5.3-6,8C27.6,98.1,31.2,100.2,32.8,98.1L32.8,98.1z"/>
	</g>
</g>
<g>
	<g>
		<path d="M70.8,17.9c-2-2.7-4-5.3-6-8C64.2,11,63.6,12,63,13.1c3.4,0,6.8,0,10.2,0c7,0,15.1-0.7,18.9,6.5
			c2.9,5.4,1.7,12.6,1.7,18.4c0,2.7,4.2,2.7,4.2,0c0-7.3,1.2-15.5-3.1-21.9C88.2,6,73.4,8.9,63,8.9c-1.5,0-2.8,1.8-1.8,3.2
			c2,2.7,4,5.3,6,8C68.8,22.2,72.4,20.1,70.8,17.9L70.8,17.9z"/>
	</g>
</g>
<g>
	<g>
		<path d="M67.2,1.9c-2,2.7-4,5.3-6,8c-1.6,2.2,2,4.3,3.6,2.1c2-2.7,4-5.3,6-8C72.4,1.9,68.8-0.2,67.2,1.9L67.2,1.9z"/>
	</g>
</g>
</svg>
