<?xml version="1.0" encoding="utf-8"?>
<!-- Generator: Adobe Illustrator 23.0.3, SVG Export Plug-In . SVG Version: 6.00 Build 0)  -->
<svg version="1.1" id="Layer_1" xmlns="http://www.w3.org/2000/svg" xmlns:xlink="http://www.w3.org/1999/xlink" x="0px" y="0px"
	 viewBox="0 0 1054 406" style="enable-background:new 0 0 1054 406;" xml:space="preserve">
<style type="text/css">
	.st0{fill:#FF000A;}
</style>
<g>
	<g>
		<path d="M654.3,338.9c-0.9-0.7-2.2-0.9-3.7-0.7c-6.6,0.4-14.1,0.8-22.3,1.1c-8.2,0.4-16.9,0.6-26,0.6c-5.5,0-10.5,0-14.9-0.1
			c-4.4-0.1-7.7-0.1-9.8-0.1c-2.7,0-4.4-0.5-5.3-1.6c-0.9-1-1.3-3.2-1.3-6.4V191.5c0-5.5-0.7-9-2-10.5c-1.3-1.5-4.2-2.3-8.5-2.3
			h-22.1c-2.1,0-3.1,1.2-3.1,3.7v180c0,3.2,0.8,5.3,2.3,6.2c1.5,0.9,2.6,1.4,3.4,1.4c7.2,0.4,16.1,0.6,26.8,0.7
			c10.7,0.1,22.1,0.1,34.2,0.1c7.9,0,14.3,0,19-0.1c4.7-0.1,8.5-0.2,11.2-0.4c2.7-0.2,4.8-0.5,6.2-1c1.4-0.5,2.7-1,3.8-1.6
			c1.5-0.8,3.1-2.2,4.7-4.3c1.6-2.1,3-4.4,4.3-6.8c1.2-2.5,2.3-5,3.1-7.5c0.9-2.6,1.3-4.9,1.3-7
			C655.7,340.7,655.3,339.6,654.3,338.9z M784.5,245.3c-1-3.7-2.3-6.8-3.7-9.2c-1.4-2.5-3.1-4.5-5-6.2c-3.6-3.2-8.9-5.7-16-7.4
			c-7.1-1.7-16.4-2.6-28-2.6c-10.8,0-19.6,0.5-26.5,1.4c-6.9,0.9-12.2,2.7-15.8,5.1c-1.5,0.9-2.9,2.4-4.3,4.3
			c-1.3,1.9-2.6,4-3.7,6.2c-1.1,2.3-2.1,4.6-2.8,7c-0.8,2.4-1.1,4.4-1.1,6.1c0,1.3,0.5,2.4,1.4,3.1c0.9,0.8,1.9,1,2.8,0.9
			c4.7-0.9,10.8-1.7,18.3-2.4c7.5-0.7,14.4-1,20.9-1c7.9,0,14,0.4,18.2,1.1c4.2,0.8,7.1,1.9,8.8,3.4c1.9,1.5,3.3,3.7,4.3,6.7
			c0.9,2.9,1.4,7.4,1.4,13.5c0,1.3-0.3,2.5-0.9,3.4c-0.6,0.9-1.6,1.5-3.1,1.7c-8.3,0.6-16.3,1.2-23.8,2c-7.6,0.8-14.4,1.6-20.6,2.6
			c-6.2,0.9-11.4,1.9-15.6,3c-4.3,1-7.2,2.2-8.9,3.5c-3,2.3-5.4,6.3-7.2,12.2c-1.8,5.9-2.7,13.2-2.7,21.9c0,9.1,1,16.7,3.1,22.7
			c2.1,6.1,4.7,10.5,7.9,13.3c1.7,1.7,3.9,3.2,6.7,4.4c2.7,1.2,6.1,2.3,10.2,3.3c4.1,0.9,8.9,1.7,14.5,2.1
			c5.6,0.5,12.2,0.7,19.7,0.7c9.7,0,18.9-0.3,27.8-0.9c8.9-0.6,16.7-1.3,23.3-2.3c2.3-0.6,3.4-2.3,3.4-5.1v-85.2
			c0-7.6-0.2-14.1-0.7-19.6C786.3,253.5,785.5,249,784.5,245.3z M753.1,332.3c0,3.4-0.2,5.8-0.6,7.1c-0.4,1.3-1.1,2.5-2.3,3.4
			c-0.6,0.8-2.7,1.3-6.4,1.7c-3.7,0.4-8.2,0.6-13.5,0.6c-5.9,0-10.4-0.4-13.6-1.3c-3.2-0.9-5.6-2-7.1-3.5c-3.4-2.5-5.1-7.5-5.1-15
			c0-3.8,0.4-6.8,1.1-8.9c0.8-2.2,1.8-3.8,3.1-5c0.9-0.8,2.8-1.4,5.7-2c2.8-0.6,6.1-1,9.9-1.4c3.8-0.4,7.8-0.7,11.9-0.9
			c4.2-0.2,8.1-0.3,11.9-0.3c1.5,0,2.7,0.2,3.5,0.7c0.9,0.5,1.3,1.8,1.3,3.8V332.3z M939.9,231.2c-3.6-3.8-8.2-6.5-13.9-8.2
			c-5.7-1.7-13.1-2.6-22.1-2.6c-7.9,0-15.1,0.4-21.4,1.1c-6.3,0.8-12.2,1.6-17.5,2.6c-2.8,0.4-4.3-1.1-4.3-4.5v-55.4
			c0-3.4-1.2-5.1-3.7-5.1h-27.8c-2.7,0-4,1.5-4,4.5v201.5c0,2.1,0.2,3.5,0.7,4.1c0.5,0.7,1.5,1,3,1h27.5c2.8,0,4.3-1.5,4.3-4.5
			V262.2c0-3.4,0.4-5.8,1.1-7.1c0.8-1.3,2.2-2.2,4.3-2.6c2.5-0.4,5.8-0.8,10.1-1.1c4.3-0.4,8.3-0.6,12.1-0.6
			c6.1,0,10.6,0.4,13.6,1.1c3,0.8,5.3,2.1,6.8,4c1.9,2.1,3.1,5.1,3.7,8.9c0.6,3.9,0.9,9,0.9,15.5v82.9c0,2.5,0.4,4.3,1.1,5.4
			c0.8,1.1,2.3,1.7,4.5,1.7h25.5c3,0,4.5-1.5,4.5-4.5v-91.7c0-12.1-0.7-21.3-2.1-27.7C945.4,240.1,943.1,235,939.9,231.2z
			 M1049,216.2l-22.2-3.3c-4.3-0.6-7.3-0.4-8.9,0.8c-1.6,1.2-2.7,4-3.2,8.6l-14.7,116.6c-0.5,3,0.4,4.6,2.4,5l15.7,2.4
			c5.6,0.8,9.4,0.1,11.4-2.3c2-2.4,3.5-6.5,4.6-12.2l18.6-110.6C1053.2,218.3,1052,216.7,1049,216.2z M1027.3,375.7
			c-2.8-2.7-7.8-4.6-14.9-5.7c-3.2-0.5-6.4-0.8-9.6-0.9c-3.2-0.1-5.7,0.5-7.4,1.8c-1.6,0.7-3,2.4-4.1,5.1c-1.1,2.7-1.9,5.7-2.4,9.1
			c-0.5,3.2-0.7,6-0.6,8.5c0.1,2.5,0.8,4.4,2.1,5.8c1,1.1,2.8,2,5.3,2.8c2.6,0.8,5.8,1.4,9.7,2c2.6,0.4,5.5,0.6,8.6,0.7
			c3.1,0.1,5.6-0.2,7.5-0.9c3.8-2.5,6.2-7.2,7.3-14.1c0.5-3.2,0.6-6.1,0.3-8.7C1028.9,378.7,1028.3,376.9,1027.3,375.7z M366.8,78.5
			h23.6v23.8c-1.9,1.8-4.5,3.3-7.9,4.5c-3.4,1.2-8,1.8-13.9,1.8c-7.9,0-14.3-2.9-19-8.8c-4.7-5.9-7.1-13.4-7.1-22.7V51.2
			c0-9.2,2.3-16.7,6.9-22.5c4.6-5.8,10.7-8.7,18.2-8.7c7.2,0,12.7,1.8,16.5,5.4c3.8,3.6,5.7,8.7,5.7,15.2h23.2l0.2-0.5
			c0.3-11.9-3.6-21.4-11.6-28.5c-8-7.1-19.5-10.7-34.5-10.7c-14.4,0-26.2,4.7-35.4,14.1c-9.2,9.4-13.8,21.5-13.8,36.4V77
			c0,14.9,4.7,27.1,14.2,36.4c9.5,9.3,21.6,14,36.5,14c12,0,21.8-1.8,29.4-5.5c7.6-3.7,13.3-8,17.1-13V61.4h-48.4V78.5z M473.5,32.6
			c-13.5,0-24,4.3-31.6,13c-7.6,8.7-11.4,19.9-11.4,33.5v1.8c0,13.7,3.8,24.9,11.4,33.6c7.6,8.6,18.2,13,31.7,13
			c13.5,0,24-4.3,31.6-13c7.6-8.6,11.4-19.8,11.4-33.6v-1.8c0-13.7-3.8-24.9-11.5-33.5C497.6,36.9,487,32.6,473.5,32.6z M492.1,80.9
			c0,8.3-1.5,14.9-4.4,20s-7.6,7.6-14,7.6c-6.5,0-11.3-2.5-14.2-7.6c-2.9-5-4.4-11.7-4.4-20.1v-1.8c0-8.1,1.5-14.7,4.4-19.8
			c3-5.2,7.6-7.7,14-7.7c6.4,0,11.1,2.6,14.1,7.7c3,5.1,4.5,11.7,4.5,19.8V80.9z M580,98.2c0,10.1,2.3,17.5,6.9,22.2
			c4.6,4.7,11.1,7,19.6,7c2.8,0,5.3-0.2,7.6-0.6c2.3-0.4,4.7-1.1,7.2-1.9l-2-17.8c-1.2,0.3-2.3,0.6-3.3,0.7c-1,0.1-2.1,0.2-3.4,0.2
			c-2.4,0-4.4-0.8-5.9-2.3c-1.5-1.5-2.2-4.1-2.2-7.6V51.6H620V34.3h-15.5V11.9H580v22.4h-13.3v17.3H580V98.2z M674.6,127.4
			c13.5,0,24-4.3,31.6-13c7.6-8.6,11.4-19.8,11.4-33.6v-1.8c0-13.7-3.8-24.9-11.5-33.5c-7.7-8.7-18.2-13-31.8-13
			c-13.5,0-24,4.3-31.6,13c-7.6,8.7-11.4,19.9-11.4,33.5v1.8c0,13.7,3.8,24.9,11.4,33.6C650.5,123.1,661.1,127.4,674.6,127.4z
			 M656,79.1c0-8.1,1.5-14.7,4.4-19.8c3-5.2,7.6-7.7,14-7.7c6.4,0,11.1,2.6,14.1,7.7c3,5.1,4.5,11.7,4.5,19.8v1.8
			c0,8.3-1.5,14.9-4.4,20c-3,5.1-7.6,7.6-14,7.6c-6.5,0-11.3-2.5-14.2-7.6c-2.9-5-4.4-11.7-4.4-20.1V79.1z"/>
	</g>
</g>
<g>
	<path class="st0" d="M105.1,355.5c2.8-2.6,5.4-5.8,7.7-9.4c2.3-3.6,4.2-7.9,5.7-13.1c1.5-5.1,2.6-11.2,3.4-18.3
		c0.8-7.1,1.1-15.5,1.1-25.1V181.5c0-1.5-0.3-2.6-0.9-3.4c-0.6-0.8-1.7-1.1-3.4-1.1h-17.6c-5.1,0-8.7,0.8-10.8,2.3
		c-2.1,1.5-3.1,5-3.1,10.5v101.3c0,12.1-0.8,21.3-2.3,27.5c-1.5,6.2-3.9,10.7-7.1,13.3c-3.2,2.7-7.3,4.6-12.2,5.8
		c-4.9,1.2-12.1,1.8-21.6,1.8c-9.1,0-16.5-0.4-22.1-1.3s-11-1.6-15.9-2.1c-1.1-0.4-2.1-0.1-3,0.9c-0.9,0.9-1.2,2.1-1,3.4
		c0,2.1,0.4,4.3,1.1,6.5c0.8,2.3,1.7,4.5,3,6.8c1.2,2.3,2.6,4.4,4,6.2c1.4,1.9,2.9,3.3,4.4,4.3c3,2.1,7.4,3.6,13.1,4.7
		c5.7,1,13.8,1.6,24.4,1.6C77.2,370.6,94.9,365.6,105.1,355.5L105.1,355.5z"/>
	<path class="st0" d="M287.8,269.2c-0.9-6.6-2-12.3-3.4-17.2c-1.4-4.8-3.1-8.9-5.1-12.2c-2-3.3-4-6.1-6.1-8.4
		c-4.2-4.4-10.2-7.8-18-10.2c-7.9-2.5-17.8-3.7-29.9-3.7c-11.9,0-21.7,1.2-29.2,3.5c-7.6,2.4-13.8,5.6-18.7,9.8
		c-5.7,4.9-10.5,12.7-14.5,23.3c-4,10.6-6,24.7-6,42.3c0,16.8,1.6,29.9,4.7,39.3c3.1,9.4,6.9,16.4,11.2,21.1
		c4.4,4.4,10.5,7.9,18.3,10.8c7.9,2.8,17.6,4.3,29.4,4.3c11.5,0,21.3-1.2,29.2-3.7c7.9-2.5,14.3-5.8,19-9.9
		c5.1-4.5,9.8-12.2,14.1-22.9c4.3-10.7,6.4-25.1,6.4-43.3C289,283.5,288.6,275.9,287.8,269.2z M250.6,322.6c-2,6.8-4.3,11.5-7,14.2
		c-3.8,3.8-11.1,5.7-21.9,5.7c-9.8,0-17-2.3-21.6-6.8c-2.5-3-4.5-7.9-6.1-14.8c-1.6-6.8-2.4-15.5-2.4-26.1c0-11.4,1-20.3,3-27
		c2-6.6,4.3-11.3,7-13.9c2.1-2.1,4.9-3.7,8.5-5c3.6-1.2,8.3-1.8,14.2-1.8c11,0,18.2,2.3,21.6,6.8c2.5,3,4.4,7.5,5.7,13.5
		c1.3,6,2,14.8,2,26.5C253.6,306.2,252.6,315.8,250.6,322.6z"/>
	<path class="st0" d="M321.7,359.2c0,2.7,0.4,4.4,1.1,5.3c0.8,0.9,2.2,1.5,4.3,1.8c5.9,1.3,12.8,2.2,20.7,2.7
		c7.9,0.5,16.5,0.7,25.5,0.7c15.1,0,26.7-1.1,34.8-3.4c8-2.3,14.2-5.3,18.6-9.1c6.2-5.5,11.4-14,15.5-25.5
		c4.1-11.5,6.1-26.8,6.1-45.7c0-17.2-1.7-30.2-5.1-39c-3.4-8.8-7.5-15.1-12.2-18.9c-4-3.2-9.2-5.6-15.6-7.1
		c-6.4-1.5-13.9-2.3-22.4-2.3c-7.2,0-13.1,0.2-17.7,0.7c-4.6,0.5-9.1,1.1-13.5,1.8c-1.5,0.4-2.7,0.2-3.7-0.6
		c-0.9-0.8-1.4-2.5-1.4-5.1v-53.1c0-1.5-0.2-2.7-0.7-3.7c-0.5-0.9-1.5-1.4-3-1.4h-27.3c-2.7,0-4,1.5-4,4.5V359.2z M409.7,318.9
		c-2.1,7.2-4.7,12.3-7.9,15.3c-2.3,2.1-5.3,3.6-8.9,4.7c-3.7,1-8.6,1.6-14.6,1.6c-2.7,0-5.6-0.2-8.8-0.6c-3.2-0.4-5.8-0.8-7.7-1.1
		c-2.1-0.4-3.5-1.2-4.1-2.6c-0.7-1.3-1-4.2-1-8.5v-65.3c0-4.4,0.3-7.3,1-8.9c0.7-1.6,1.8-2.6,3.5-3c2.5-0.4,5.4-0.9,8.9-1.4
		c3.5-0.6,7.6-0.9,12.3-0.9c4.9,0,9.3,0.5,13.1,1.4c3.8,0.9,6.8,2.5,9.1,4.5c2.1,2.5,4,6.5,5.7,12.1c1.7,5.6,2.6,13.8,2.6,24.6
		C412.8,302.4,411.8,311.7,409.7,318.9z"/>
</g>
</svg>
