<?xml version="1.0" encoding="utf-8"?>
<!-- Generator: Adobe Illustrator 23.0.3, SVG Export Plug-In . SVG Version: 6.00 Build 0)  -->
<svg version="1.1" id="Layer_1" xmlns="http://www.w3.org/2000/svg" xmlns:xlink="http://www.w3.org/1999/xlink" x="0px" y="0px"
	 viewBox="0 0 899 297" style="enable-background:new 0 0 899 297;" xml:space="preserve">
<style type="text/css">
	.st0{fill:#FF000A;}
</style>
<g>
	<g>
		<path d="M336.8,56.6h16.7v16.8c-1.3,1.3-3.2,2.3-5.6,3.2c-2.4,0.8-5.7,1.3-9.8,1.3c-5.6,0-10.1-2.1-13.4-6.2s-5-9.5-5-16V37.3
			c0-6.5,1.6-11.8,4.9-15.9s7.5-6.2,12.9-6.2c5.1,0,9,1.3,11.6,3.8c2.7,2.6,4,6.1,4,10.8h16.4l0.1-0.4c0.2-8.4-2.5-15.1-8.2-20.1
			c-5.6-5-13.8-7.5-24.4-7.5c-10.2,0-18.5,3.3-25,9.9s-9.7,15.2-9.7,25.6v18.1c0,10.5,3.3,19.1,10,25.7C319,87.7,327.6,91,338,91
			c8.5,0,15.4-1.3,20.7-3.9c5.4-2.6,9.4-5.7,12.1-9.2V44.5h-34.1L336.8,56.6L336.8,56.6z M412.1,24.2c-9.5,0-16.9,3.1-22.3,9.2
			s-8,14-8,23.6v1.3c0,9.7,2.7,17.6,8.1,23.7s12.8,9.1,22.4,9.1c9.5,0,16.9-3,22.3-9.1s8.1-14,8.1-23.7V57c0-9.7-2.7-17.5-8.1-23.7
			C429.1,27.3,421.6,24.2,412.1,24.2z M425.2,58.3c0,5.8-1,10.5-3.1,14.1s-5.4,5.4-9.9,5.4c-4.6,0-7.9-1.8-10-5.3
			c-2.1-3.6-3.1-8.3-3.1-14.1V57c0-5.7,1-10.3,3.1-14c2.1-3.6,5.4-5.5,9.9-5.5s7.8,1.8,9.9,5.4c2.1,3.6,3.2,8.3,3.2,14V58.3z
			 M512.6,77.3c-0.7,0.1-1.5,0.1-2.4,0.1c-1.7,0-3.1-0.5-4.1-1.6c-1.1-1.1-1.6-2.9-1.6-5.4V37.6h10.9V25.4h-10.9V9.6h-17.3v15.8
			h-9.4v12.2h9.4v32.9c0,7.1,1.6,12.4,4.9,15.7c3.2,3.3,7.9,4.9,13.9,4.9c1.9,0,3.7-0.1,5.4-0.4c1.6-0.3,3.3-0.7,5.1-1.3L515,76.8
			C514.1,77,513.3,77.2,512.6,77.3z M576.2,33.4c-5.4-6.1-12.9-9.2-22.4-9.2s-16.9,3.1-22.3,9.2c-5.4,6.1-8,14-8,23.6v1.3
			c0,9.7,2.7,17.6,8.1,23.7c5.4,6.1,12.8,9.1,22.4,9.1c9.5,0,16.9-3,22.3-9.1c5.4-6.1,8.1-14,8.1-23.7V57
			C584.3,47.4,581.6,39.5,576.2,33.4z M566.9,58.3c0,5.8-1,10.5-3.1,14.1s-5.4,5.4-9.9,5.4c-4.6,0-7.9-1.8-10-5.3
			c-2.1-3.6-3.1-8.3-3.1-14.1V57c0-5.7,1-10.3,3.1-14c2.1-3.6,5.4-5.5,9.9-5.5s7.8,1.8,9.9,5.4c2.1,3.6,3.2,8.3,3.2,14L566.9,58.3
			L566.9,58.3z"/>
	</g>
</g>
<g>
	<g>
		<g>
			<path d="M191.3,243.6c-2.2,0-6.3,0.4-12.2,1.3c-5.9,0.9-12.7,1.3-20.2,1.3s-13.6-0.5-18.2-1.6c-4.6-1-8.3-2.7-11.1-5.1
				c-3-2.5-5.5-7.2-7.6-14c-2.1-6.8-3.1-17-3.1-30.5c0-12.9,1.2-22.9,3.6-29.9c2.4-7,5.1-11.9,8.2-14.6c1.3-1,2.8-2,4.3-2.9
				c1.6-0.9,3.4-1.6,5.7-2.2c2.2-0.6,4.9-1,7.9-1.3c3-0.3,6.7-0.4,11-0.4c7.1,0,13.2,0.3,18.2,0.9c5,0.6,9.5,1.1,13.3,1.6
				c1,0.1,1.8-0.1,2.3-0.8c0.5-0.7,0.8-1.4,0.8-2.1c0-1.3-0.2-3-0.6-4.9c-0.4-1.9-1-3.8-1.8-5.7c-0.8-1.9-1.8-3.6-3-5.3
				c-1.2-1.7-2.6-3.1-4.2-4.3c-2.5-1.8-6.5-3-11.8-3.6c-5.3-0.6-11.6-0.9-18.9-0.9c-11.1,0-20.1,1.1-27,3.2
				c-6.9,2.2-12.3,4.9-16.4,8.3c-6.2,5.2-11.2,13.1-15,23.7c-3.8,10.6-5.7,25-5.7,43.3c0,9,0.5,17.1,1.4,24c1,7,2.3,13,3.9,18.1
				c1.6,5.1,3.5,9.4,5.6,12.8c2.1,3.4,4.3,6.2,6.7,8.5c4.2,3.7,9.9,6.6,17.4,8.7c7.4,2.1,15.5,3.1,24.3,3.1c9.6,0,17.1-0.5,22.5-1.4
				s9.3-2.3,11.8-3.9c2.8-1.9,5.2-4.9,7.1-8.9c1.9-4,3.2-7.7,3.8-11.1c0.1-1.2-0.1-2-0.8-2.6C192.7,243.9,192,243.6,191.3,243.6z
				 M325.9,120.4h-9.6c-3.3,0-5.9,0.4-8,1.1c-2.1,0.7-3.8,1.8-5.1,3.2c-1.3,1.4-2.4,3.2-3.2,5.3c-0.8,2.2-1.4,4.6-1.9,7.2L281,220.9
				c-1.8,8-3.2,13.6-4.2,16.9c-1,3.3-2.2,5.4-3.3,6.5c-0.9,0.7-1.9,1.3-3.1,1.8c-1.2,0.4-2.7,0.7-4.7,0.7c-3.6,0-6.3-1-8.2-2.9
				c-0.4-0.6-0.9-1.4-1.2-2.3c-0.4-1-0.9-2.4-1.4-4.2c-0.6-1.9-1.2-4.2-1.8-7.1c-0.6-2.9-1.3-6.5-2.2-10.8l-14.2-80.8
				c-1.2-7.6-3.2-12.5-6.1-14.8c-2.9-2.3-7-3.4-12.3-3.4h-9.8c-2.5,0-3.8,1-3.8,3.1c0,1.3,0.3,3.3,0.9,5.8l17.8,95.2
				c1.3,6.8,2.6,12.5,3.7,17c1.1,4.5,2.3,8.3,3.4,11.2c1.2,3,2.3,5.3,3.4,7.1c1.1,1.8,2.3,3.3,3.7,4.4c2.8,2.7,6.4,4.6,10.7,5.9
				c4.3,1.3,10,1.9,17.1,1.9s12.8-0.6,17.1-1.8c4.3-1.2,7.8-3,10.5-5.6c1.2-1.2,2.4-2.6,3.6-4.3c1.2-1.7,2.4-4,3.6-6.8
				c1.2-2.8,2.4-6.4,3.7-10.7c1.3-4.3,2.6-9.6,3.9-16l21.1-98.1c0.3-1.3,0.6-2.4,0.8-3.3c0.2-0.9,0.3-1.7,0.3-2.4
				C329.7,121.2,328.4,120.4,325.9,120.4z"/>
		</g>
	</g>
	<path class="st0" d="M402,263.3c0,2.5,0.6,4.2,1.8,4.9c1.2,0.7,2.1,1.1,2.7,1.1c5.6,0.3,12.6,0.5,21,0.6c8.4,0.1,17.3,0.1,26.8,0.1
		c6.2,0,11.2,0,14.9-0.1c3.7-0.1,6.6-0.2,8.8-0.3c2.1-0.1,3.8-0.4,4.9-0.8c1.1-0.4,2.1-0.8,3-1.2c1.2-0.6,2.4-1.7,3.7-3.3
		c1.3-1.6,2.4-3.4,3.3-5.3c1-1.9,1.8-3.9,2.4-5.9c0.7-2,1-3.8,1-5.5c0-1.2-0.4-2-1.1-2.6c-0.7-0.5-1.7-0.7-2.9-0.6
		c-5.2,0.3-11,0.6-17.5,0.9c-6.5,0.3-13.2,0.4-20.4,0.4c-4.3,0-8.2,0-11.7-0.1c-3.5-0.1-6-0.1-7.7-0.1c-2.1,0-3.4-0.4-4.1-1.2
		c-0.7-0.8-1-2.5-1-5V129.4c0-4.3-0.5-7-1.6-8.2c-1-1.2-3.3-1.8-6.7-1.8h-17.4c-1.6,0-2.4,1-2.4,2.9V263.3z"/>
	<path class="st0" d="M599.5,197.7c0-5.9-0.2-11-0.6-15.4c-0.4-4.3-1-7.9-1.8-10.8c-0.8-2.9-1.8-5.3-2.9-7.2
		c-1.1-1.9-2.4-3.6-3.9-4.9c-2.8-2.5-7-4.4-12.6-5.8s-12.9-2-21.9-2c-8.5,0-15.4,0.4-20.8,1.1c-5.4,0.7-9.5,2.1-12.3,4
		c-1.2,0.7-2.3,1.9-3.3,3.3c-1,1.5-2,3.1-2.9,4.9c-0.9,1.8-1.6,3.6-2.2,5.5c-0.6,1.9-0.9,3.4-0.9,4.8c0,1,0.4,1.9,1.1,2.4
		c0.7,0.6,1.5,0.8,2.2,0.7c3.7-0.7,8.5-1.4,14.3-1.9c5.9-0.5,11.3-0.8,16.4-0.8c6.2,0,11,0.3,14.2,0.9c3.3,0.6,5.6,1.5,6.9,2.7
		c1.5,1.2,2.6,2.9,3.3,5.2c0.7,2.3,1.1,5.8,1.1,10.6c0,1-0.2,1.9-0.7,2.7c-0.4,0.7-1.3,1.2-2.4,1.3c-6.5,0.4-12.8,1-18.7,1.6
		c-5.9,0.6-11.3,1.3-16.1,2c-4.8,0.7-8.9,1.5-12.2,2.3c-3.3,0.8-5.7,1.7-7,2.8c-2.4,1.8-4.3,5-5.7,9.6c-1.4,4.6-2.1,10.3-2.1,17.1
		c0,7.1,0.8,13.1,2.4,17.8c1.6,4.7,3.7,8.2,6.2,10.5c1.3,1.3,3.1,2.5,5.2,3.4c2.1,1,4.8,1.8,8,2.6c3.2,0.7,7,1.3,11.3,1.7
		c4.4,0.4,9.5,0.6,15.5,0.6c7.6,0,14.8-0.2,21.8-0.7c7-0.4,13-1,18.2-1.8c1.8-0.4,2.7-1.8,2.7-4V197.7z M572.6,239.7
		c0,2.7-0.1,4.5-0.4,5.6c-0.3,1-0.9,1.9-1.8,2.7c-0.4,0.6-2.1,1-5,1.3c-2.9,0.3-6.4,0.4-10.6,0.4c-4.6,0-8.2-0.3-10.7-1
		c-2.5-0.7-4.4-1.6-5.6-2.8c-2.7-1.9-4-5.9-4-11.8c0-3,0.3-5.3,0.9-7c0.6-1.7,1.4-3,2.4-3.9c0.7-0.6,2.2-1.1,4.4-1.6
		c2.2-0.4,4.8-0.8,7.8-1.1c3-0.3,6.1-0.5,9.3-0.7c3.3-0.1,6.4-0.2,9.3-0.2c1.2,0,2.1,0.2,2.8,0.6c0.7,0.4,1,1.4,1,3V239.7z"/>
	<path class="st0" d="M726.1,194.1c0-9.5-0.6-16.7-1.7-21.7c-1.1-5-2.9-8.9-5.5-11.9c-2.8-3-6.5-5.1-10.9-6.5
		c-4.4-1.3-10.2-2-17.4-2c-6.2,0-11.8,0.3-16.8,0.9c-5,0.6-9.5,1.3-13.7,2c-2.2,0.3-3.3-0.9-3.3-3.6V108c0-2.7-1-4-2.9-4h-21.8
		c-2.1,0-3.1,1.2-3.1,3.6v158c0,1.6,0.2,2.7,0.6,3.2c0.4,0.5,1.1,0.8,2.3,0.8h21.6c2.2,0,3.3-1.2,3.3-3.6v-81.2
		c0-2.7,0.3-4.5,0.9-5.6c0.6-1,1.7-1.7,3.3-2c1.9-0.3,4.6-0.6,7.9-0.9c3.3-0.3,6.5-0.4,9.5-0.4c4.7,0,8.3,0.3,10.7,0.9
		c2.4,0.6,4.2,1.6,5.3,3.1c1.5,1.6,2.4,4,2.9,7c0.4,3,0.7,7.1,0.7,12.1v65c0,1.9,0.3,3.3,0.9,4.2c0.6,0.9,1.8,1.3,3.6,1.3h20
		c2.4,0,3.6-1.2,3.6-3.6V194.1z"/>
	<path class="st0" d="M764.9,241.3c-0.4,2.3,0.1,3.6,1.7,3.9l12.1,2.3c4.3,0.8,7.3,0.3,8.9-1.5c1.6-1.8,2.9-4.9,3.9-9.3l17.5-85.2
		c0.4-2.2-0.5-3.5-2.9-3.9l-17.1-3.2c-3.3-0.6-5.6-0.5-6.9,0.4c-1.3,0.9-2.2,3.1-2.7,6.6L764.9,241.3z M754.2,283.4
		c0,1.9,0.5,3.5,1.5,4.5c0.7,0.9,2.1,1.7,4,2.3c2,0.7,4.5,1.3,7.5,1.9c2,0.4,4.2,0.6,6.7,0.8c2.4,0.2,4.4,0,5.8-0.5
		c3-1.8,5-5.4,6-10.7c0.5-2.5,0.6-4.7,0.5-6.7c-0.1-2-0.6-3.5-1.3-4.4c-2.1-2.2-5.9-3.8-11.4-4.8c-2.5-0.5-4.9-0.8-7.4-0.9
		c-2.5-0.2-4.4,0.2-5.8,1.1c-1.3,0.5-2.4,1.8-3.3,3.9c-0.9,2.1-1.6,4.4-2.1,7C754.4,279.3,754.2,281.5,754.2,283.4z"/>
</g>
</svg>
