<?xml version="1.0" encoding="utf-8"?>
<!-- Generator: Adobe Illustrator 23.0.3, SVG Export Plug-In . SVG Version: 6.00 Build 0)  -->
<svg version="1.1" id="Layer_1" xmlns="http://www.w3.org/2000/svg" xmlns:xlink="http://www.w3.org/1999/xlink" x="0px" y="0px"
	 viewBox="0 0 152 153" style="enable-background:new 0 0 152 153;" xml:space="preserve">
<style type="text/css">
	.st0{fill-rule:evenodd;clip-rule:evenodd;fill:#1C1C1C;}
</style>
<path class="st0" d="M147.8,108.9c-5.1,23.2-12.2,26.3-21.7,32.5C106.8,153,77.7,152.3,76,152.2c-1.7,0.1-30.8,0.7-50.1-10.8
	c-9.5-6.2-16.6-9.3-21.7-32.5c-4-19.2-6.4-41.3,2.2-73.4c2.4-9.1,10-21.2,25-26.5C57.7-2,94.3-2,120.6,8.9c15,5.3,22.6,17.5,25,26.5
	C154.2,67.5,151.8,89.6,147.8,108.9z M75.5,130.6c5.7,0,10.3-4.6,10.3-10.3c0-5.7-4.6-10.3-10.3-10.3c-5.7,0-10.3,4.6-10.3,10.3
	C65.1,125.9,69.8,130.6,75.5,130.6z M75.8,23.4c-16.6,0-30.2,13.4-30.4,30l0,0c0,5.3,4.4,9.6,9.7,9.6c5.3,0,9.7-4.3,9.7-9.7
	c0-0.1,0-0.3,0-0.4c0.5-5.7,5.2-10.1,11-10.1c6.1,0,11.1,5,11.1,11.1c0,4.1-2.2,7.7-5.6,9.6c-2.4,0.5-14.8,3.5-15.7,16
	c0,7.9,0,10.3,0,11.1c0,0.1,0,0.3,0,0.4c0,5.6,4.5,10.1,10.1,10.1c5.6,0,10.1-4.5,10.1-10.1c0-0.6-0.1-1.2-0.2-1.8v-6.5
	c12-4.1,20.7-15.4,20.7-28.8C106.2,37,92.6,23.4,75.8,23.4z"/>
</svg>
