<?xml version="1.0" encoding="utf-8"?>
<!-- Generator: Adobe Illustrator 23.0.3, SVG Export Plug-In . SVG Version: 6.00 Build 0)  -->
<svg version="1.1" id="Layer_1" xmlns="http://www.w3.org/2000/svg" xmlns:xlink="http://www.w3.org/1999/xlink" x="0px" y="0px"
	 viewBox="0 0 100 100" style="enable-background:new 0 0 100 100;" xml:space="preserve">
<style type="text/css">
	.st0{fill-rule:evenodd;clip-rule:evenodd;fill:#FE0710;}
</style>
<path class="st0" d="M98.6,43.8C96,48,83,67.7,83,67.7s-0.9,2.3-4.9,3c-4,0.7-62,11.1-62,11.1s-7.1,1.9-8.6-6.2
	c-1.6-8.1-7-38.6-7-38.6s-1.3-7,5.8-8.3c7.1-1.3,57.2-10.3,57.2-10.3s5.9-1.3,9.7,1.3c2.9,2,15.7,10.9,21.5,15
	c0.6,0.3,1.5,0.9,2.4,1.7c0.3,0.2,0.5,0.4,0.5,0.4S101.3,39.7,98.6,43.8z M83.8,34.7c-4.7,0-8.5,3.8-8.5,8.5s3.8,8.5,8.5,8.5
	c4.7,0,8.5-3.8,8.5-8.5S88.5,34.7,83.8,34.7z M83.8,47.8c-2.5,0-4.6-2-4.6-4.6c0-2.5,2-4.6,4.6-4.6c2.5,0,4.6,2,4.6,4.6
	C88.3,45.7,86.3,47.8,83.8,47.8z"/>
</svg>
