<?xml version="1.0" encoding="utf-8"?>
<!-- Generator: Adobe Illustrator 23.0.3, SVG Export Plug-In . SVG Version: 6.00 Build 0)  -->
<svg version="1.1" id="Layer_1" xmlns="http://www.w3.org/2000/svg" xmlns:xlink="http://www.w3.org/1999/xlink" x="0px" y="0px"
	 viewBox="0 0 955 263" style="enable-background:new 0 0 955 263;" xml:space="preserve">
<style type="text/css">
	.st0{fill:#FF000A;}
</style>
<g>
	<g>
		<path d="M137.4,34.9c1.1-4.5,1.7-8.7,1.7-12.8c0-1.4-0.2-2.3-0.7-2.8c-0.4-0.4-1.4-0.7-3-0.7H23.9c-4.6,0-8.2,0.1-10.8,0.4
			c-2.6,0.3-4.7,1-6.1,2.2c-0.9,0.7-1.7,1.9-2.4,3.6c-0.7,1.7-1.3,3.5-1.8,5.5c-0.5,2-1,4.2-1.3,6.4C1.2,39.2,1,41.3,1,43.2
			c0,1.8,1.1,2.6,3.2,2.6h32.4c3.7,0,6.6,0.2,8.7,0.7c2.1,0.4,3.7,1.2,4.9,2.4c1.1,1.1,1.8,2.8,2.1,5c0.3,2.2,0.4,5.1,0.4,8.8v129.5
			c0,2.8,1.3,4.2,3.9,4.2h25c2.8,0,4.2-1.7,4.2-5V63.2c0-3.9,0.2-6.9,0.5-9.2c0.3-2.3,1.1-4,2.1-5.3c1.1-1.2,2.5-2,4.3-2.4
			c1.8-0.3,4.3-0.5,7.2-0.5h21.8c3,0,5.4-0.1,7.2-0.4c1.8-0.3,3.3-0.8,4.3-1.7C135,42.3,136.3,39.4,137.4,34.9z M234.8,80.4
			c-1-3.4-2.1-6.3-3.4-8.6c-1.3-2.3-2.9-4.2-4.6-5.8c-3.3-3-8.3-5.3-14.9-6.8c-6.6-1.6-15.2-2.4-25.9-2.4c-10,0-18.2,0.4-24.6,1.3
			c-6.4,0.9-11.3,2.5-14.6,4.7c-1.4,0.9-2.7,2.2-3.9,3.9c-1.2,1.8-2.4,3.7-3.4,5.8c-1.1,2.1-1.9,4.3-2.6,6.4
			c-0.7,2.2-1.1,4.1-1.1,5.7c0,1.2,0.4,2.2,1.3,2.9c0.9,0.7,1.8,1,2.6,0.8c4.4-0.9,10-1.6,17-2.2c6.9-0.6,13.4-0.9,19.3-0.9
			c7.4,0,13,0.4,16.8,1.1c3.9,0.7,6.6,1.8,8.2,3.2c1.8,1.4,3.1,3.5,3.9,6.2c0.9,2.7,1.3,6.9,1.3,12.5c0,1.2-0.3,2.3-0.8,3.2
			c-0.5,0.9-1.5,1.4-2.9,1.6c-7.7,0.5-15.1,1.1-22.1,1.8c-7,0.7-13.4,1.5-19.1,2.4c-5.7,0.9-10.5,1.8-14.5,2.8
			c-3.9,1-6.7,2.1-8.3,3.3c-2.8,2.1-5,5.9-6.7,11.3c-1.7,5.4-2.5,12.2-2.5,20.3c0,8.4,1,15.4,2.9,21.1c1.9,5.6,4.4,9.7,7.4,12.4
			c1.6,1.6,3.6,2.9,6.2,4.1c2.5,1.1,5.7,2.2,9.5,3c3.8,0.9,8.2,1.5,13.4,2c5.2,0.4,11.3,0.7,18.3,0.7c8.9,0,17.5-0.3,25.8-0.8
			c8.2-0.5,15.4-1.2,21.6-2.1c2.1-0.5,3.2-2.1,3.2-4.7v-78.9c0-7-0.2-13.1-0.7-18.2C236.5,88.1,235.8,83.9,234.8,80.4z M205.7,161.1
			c0,3.2-0.2,5.4-0.5,6.6c-0.4,1.2-1.1,2.3-2.1,3.2c-0.5,0.7-2.5,1.2-5.9,1.6c-3.4,0.4-7.6,0.5-12.5,0.5c-5.4,0-9.7-0.4-12.6-1.2
			c-3-0.8-5.2-1.9-6.6-3.3c-3.2-2.3-4.7-6.9-4.7-13.9c0-3.5,0.3-6.3,1.1-8.3c0.7-2,1.7-3.6,2.9-4.6c0.9-0.7,2.6-1.3,5.3-1.8
			c2.6-0.5,5.7-1,9.2-1.3c3.5-0.3,7.2-0.6,11.1-0.8c3.9-0.2,7.5-0.3,11.1-0.3c1.4,0,2.5,0.2,3.3,0.7c0.8,0.4,1.2,1.6,1.2,3.6V161.1z
			 M387.8,189.8c-1.6-4.4-3.6-7.5-6.1-9.5c-2.6-2.1-7.2-3.6-13.8-4.3c-6.6-0.8-16.4-1.2-29.6-1.2h-18.8c-5.9,0-10.1,0.1-12.8,0.3
			c-2.5,0-3.7-1.5-3.7-4.5c0-3.2,0.3-6.1,0.8-8.9c0.5-2.8,1.2-4.6,2.1-5.3c0.9-0.7,2.5-1.2,5-1.4c2.5-0.3,6.5-0.6,12.1-0.9
			c7.4-0.2,13.6-0.6,18.6-1.2c5-0.6,9.3-1.5,12.9-2.6c3.6-1.1,6.6-2.5,8.9-3.9c2.4-1.5,4.5-3.1,6.4-4.9
			c11.2-11.1,16.8-36.7,16.8-76.8c0-2.5-1.3-3.9-3.9-4.2c-4.6-0.5-10.9-1.1-19.1-1.8c-8.2-0.7-17.4-1.1-27.8-1.1
			c-15.8,0-27.7,1-35.8,2.9c-8.1,1.9-14,4.7-17.9,8.4c-3.9,3.5-6.6,8.5-8.3,14.9c-1.7,6.4-2.5,14.3-2.5,23.8
			c0,9.5,0.6,17.9,1.8,25.4c1.2,7.5,1.8,13.9,1.8,19.3c0,1.6-0.1,4.1-0.4,7.5c-0.3,3.4-0.6,7.3-1.1,11.7c-0.4,4.4-0.8,8.9-1.1,13.7
			c-0.3,4.7-0.4,9.2-0.4,13.4c0,2.5,1.1,3.7,3.4,3.7c6.5,0,14-0.1,22.6-0.3c8.6-0.2,16.8-0.3,24.7-0.3c5.8,0,10.6,0,14.3,0.1
			c3.8,0.1,6.8,0.2,9.2,0.4c2.4,0.2,4.1,0.4,5.3,0.7c1.1,0.3,1.9,0.7,2.2,1.2c1.1,0.5,2,1.6,2.8,3.3c0.8,1.7,1.2,3.8,1.2,6.4
			c0,7.4-1.8,12.4-5.3,15c-1.6,1.4-5,2.6-10.1,3.6c-5.2,1-12.5,1.4-22,1.4c-9.5,0-18.4-0.4-26.7-1.2c-8.3-0.8-15.3-1.5-20.9-2.2
			c-1.2-0.2-2.3,0-3.2,0.7c-0.9,0.6-1.3,1.6-1.3,3c0,1.4,0.3,3.2,0.8,5.3c0.5,2.1,1.2,4.3,2.1,6.4c0.9,2.2,2,4.3,3.4,6.3
			c1.4,2,3.1,3.6,5,4.6c3.2,1.9,8.2,3.4,15,4.3c6.8,1,16.3,1.4,28.4,1.4c14,0,25.3-1.1,33.8-3.4c8.5-2.3,15-5.4,19.6-9.5
			c3.9-3.3,7.1-8.6,9.6-15.8c2.5-7.2,3.8-15.9,3.8-26.1C390.2,200.1,389.4,194.2,387.8,189.8z M307.1,89c1.6-1.9,4.5-3.2,8.7-3.9
			c4.2-0.7,9.6-1.1,16.1-1.1c4,0,7.5,0.1,10.5,0.3c3,0.2,5.7,0.5,8.2,1.1c1.8,0.4,2.8,1,3.2,1.8c0.3,0.9,0.5,2.3,0.5,4.2
			c0,7.4-0.7,13.8-2.2,19.2c-1.5,5.4-3.4,9.2-5.7,11.3c-1.9,1.6-4.8,3-8.6,4.2c-3.8,1.2-9.9,1.8-18.3,1.8c-3.2,0-6-0.1-8.6-0.3
			c-2.5-0.2-4.2-0.5-4.9-1.1c-0.9-0.9-1.7-3.3-2.4-7.2c-0.7-3.9-1.1-8.2-1.1-12.8C302.6,97.9,304.1,92,307.1,89z"/>
	</g>
</g>
<g>
	<path class="st0" d="M468.1,190.4c0,3,0.7,4.9,2.1,5.8c1.4,0.9,2.5,1.3,3.2,1.3c6.7,0.3,15,0.6,24.9,0.7c9.9,0.1,20.5,0.1,31.7,0.1
		c7.4,0,13.2,0,17.6-0.1c4.4-0.1,7.8-0.2,10.4-0.4c2.5-0.2,4.5-0.5,5.8-0.9c1.3-0.4,2.5-0.9,3.6-1.4c1.4-0.7,2.8-2,4.3-3.9
		c1.5-1.9,2.8-4,3.9-6.3c1.1-2.3,2.1-4.6,2.9-7c0.8-2.4,1.2-4.5,1.2-6.4c0-1.4-0.4-2.4-1.3-3c-0.9-0.6-2-0.8-3.4-0.7
		c-6.1,0.4-13,0.7-20.7,1.1c-7.6,0.4-15.7,0.5-24.1,0.5c-5.1,0-9.7,0-13.8-0.1c-4.1-0.1-7.2-0.1-9.1-0.1c-2.5,0-4.1-0.5-4.9-1.4
		c-0.8-1-1.2-2.9-1.2-5.9V32c0-5.1-0.6-8.3-1.8-9.7c-1.2-1.4-3.9-2.1-7.9-2.1H471c-1.9,0-2.9,1.1-2.9,3.4V190.4z"/>
	<path class="st0" d="M701.8,112.8c0-7-0.2-13.1-0.7-18.2c-0.4-5.1-1.1-9.3-2.1-12.8c-1-3.4-2.1-6.3-3.4-8.6
		c-1.3-2.3-2.9-4.2-4.6-5.8c-3.3-3-8.3-5.3-14.9-6.8c-6.6-1.6-15.2-2.4-25.9-2.4c-10,0-18.2,0.4-24.6,1.3
		c-6.4,0.9-11.3,2.5-14.6,4.7c-1.4,0.9-2.7,2.2-3.9,3.9c-1.2,1.8-2.4,3.7-3.4,5.8c-1.1,2.1-1.9,4.3-2.6,6.4
		c-0.7,2.2-1.1,4.1-1.1,5.7c0,1.2,0.4,2.2,1.3,2.9c0.9,0.7,1.8,1,2.6,0.8c4.4-0.9,10-1.6,17-2.2c6.9-0.6,13.4-0.9,19.3-0.9
		c7.4,0,13,0.4,16.8,1.1c3.9,0.7,6.6,1.8,8.2,3.2c1.8,1.4,3.1,3.5,3.9,6.2c0.9,2.7,1.3,6.9,1.3,12.5c0,1.2-0.3,2.3-0.8,3.2
		c-0.5,0.9-1.5,1.4-2.9,1.6c-7.7,0.5-15.1,1.1-22.1,1.8c-7,0.7-13.4,1.5-19.1,2.4c-5.7,0.9-10.5,1.8-14.5,2.8
		c-3.9,1-6.7,2.1-8.3,3.3c-2.8,2.1-5,5.9-6.7,11.3c-1.7,5.4-2.5,12.2-2.5,20.3c0,8.4,1,15.4,2.9,21.1c1.9,5.6,4.4,9.7,7.4,12.4
		c1.6,1.6,3.6,2.9,6.2,4.1c2.5,1.1,5.7,2.2,9.5,3c3.8,0.9,8.2,1.5,13.4,2c5.2,0.4,11.3,0.7,18.3,0.7c8.9,0,17.5-0.3,25.8-0.8
		c8.2-0.5,15.4-1.2,21.6-2.1c2.1-0.5,3.2-2.1,3.2-4.7V112.8z M669.9,162.5c0,3.2-0.2,5.4-0.5,6.6c-0.4,1.2-1.1,2.3-2.1,3.2
		c-0.5,0.7-2.5,1.2-5.9,1.6c-3.4,0.4-7.6,0.5-12.5,0.5c-5.4,0-9.7-0.4-12.6-1.2c-3-0.8-5.2-1.9-6.6-3.3c-3.2-2.3-4.7-6.9-4.7-13.9
		c0-3.5,0.3-6.3,1.1-8.3c0.7-2,1.7-3.6,2.9-4.6c0.9-0.7,2.6-1.3,5.3-1.8c2.6-0.5,5.7-1,9.2-1.3c3.5-0.3,7.2-0.6,11.1-0.8
		c3.9-0.2,7.5-0.3,11.1-0.3c1.4,0,2.5,0.2,3.3,0.7c0.8,0.4,1.2,1.6,1.2,3.6V162.5z"/>
	<path class="st0" d="M851.5,108.6c0-11.2-0.7-19.8-2-25.7c-1.3-5.9-3.5-10.6-6.4-14.1c-3.3-3.5-7.6-6.1-12.9-7.6
		c-5.3-1.6-12.1-2.4-20.5-2.4c-7.4,0-14,0.4-19.9,1.1c-5.9,0.7-11.3,1.5-16.2,2.4c-2.6,0.4-3.9-1.1-3.9-4.2V6.7
		c0-3.2-1.1-4.7-3.4-4.7h-25.8c-2.5,0-3.7,1.4-3.7,4.2v186.8c0,1.9,0.2,3.2,0.7,3.8c0.4,0.6,1.4,0.9,2.8,0.9h25.5
		c2.6,0,3.9-1.4,3.9-4.2V97.5c0-3.2,0.3-5.3,1.1-6.6c0.7-1.2,2-2,3.9-2.4c2.3-0.3,5.4-0.7,9.3-1.1c3.9-0.3,7.7-0.5,11.2-0.5
		c5.6,0,9.8,0.4,12.6,1.1c2.8,0.7,4.9,1.9,6.3,3.7c1.8,1.9,2.9,4.7,3.4,8.3c0.5,3.6,0.8,8.4,0.8,14.3v76.8c0,2.3,0.3,3.9,1.1,5
		c0.7,1.1,2.1,1.6,4.2,1.6h23.7c2.8,0,4.2-1.4,4.2-4.2V108.6z"/>
	<path class="st0" d="M901.1,166.5c-0.5,2.8,0.2,4.3,2.1,4.7l14.5,2.7c5.2,1,8.7,0.4,10.6-1.8c1.9-2.1,3.5-5.9,4.6-11.2l21-101.8
		c0.5-2.6-0.7-4.1-3.4-4.7L930,50.6c-4-0.7-6.7-0.6-8.3,0.5c-1.5,1.1-2.6,3.7-3.2,7.8L901.1,166.5z M888.3,216.8
		c0,2.3,0.6,4.1,1.8,5.4c0.9,1.1,2.5,2,4.8,2.8c2.3,0.8,5.3,1.5,9,2.2c2.4,0.5,5.1,0.8,8,1c2.9,0.2,5.2,0,6.9-0.6
		c3.6-2.2,6-6.5,7.2-12.8c0.5-2.9,0.7-5.6,0.6-8.1c-0.2-2.4-0.7-4.2-1.6-5.2c-2.5-2.6-7.1-4.5-13.6-5.8c-2.9-0.5-5.9-0.9-8.9-1.1
		c-3-0.2-5.3,0.3-7,1.4c-1.5,0.6-2.9,2.1-3.9,4.6c-1.1,2.5-1.9,5.3-2.5,8.4C888.6,211.9,888.3,214.5,888.3,216.8z"/>
</g>
</svg>
