<?xml version="1.0" encoding="utf-8"?>
<!-- Generator: Adobe Illustrator 23.0.3, SVG Export Plug-In . SVG Version: 6.00 Build 0)  -->
<svg version="1.1" xmlns="http://www.w3.org/2000/svg" xmlns:xlink="http://www.w3.org/1999/xlink" x="0px" y="0px"
	 viewBox="0 0 429 353" style="enable-background:new 0 0 429 353;" xml:space="preserve">
<style type="text/css">
	.st0{display:none;}
</style>
<g id="Layer_1" class="st0">
	
		<image style="display:inline;overflow:visible;opacity:0.26;" width="429" height="353" xlink:href="C:\Users\Akhil Girijan\Desktop\wall.png" >
	</image>
</g>
<g id="Layer_2">
	<g>
		<g>
			<path d="M38.5,14.5c30.7,0,61.3,0,92,0c56.1,0,112.3,0,168.4,0c29.3,0,58.6-0.6,87.9,0c3.8,0.1,5,0.2,9.1,1.5
				c5,1.6,9.7,4.8,12.4,9.6c4.8,8.5,3.1,20.4,3.1,30c0,27.4,0,54.7,0,82.1c0,29.2,0,58.3,0,87.5c0,8.3,0,16.7,0,25
				c0,1.4,0,2.8,0,4.2c-0.1,2.8-0.1,2.6-0.6,4.9c-2.6,12.5-11.4,19.2-24.2,19.2c-5.4,0-10.9,0-16.3,0c-21.5,0-42.9,0-64.4,0
				c-58.7,0-117.3,0-176,0c-22.4,0-44.7,0-67.1,0c-8.5,0-17,0.3-25.4-0.1c-1.7-0.1,0.1,0.1-0.7-0.1c-1-0.2-1.9-0.3-2.9-0.6
				c-2.4-0.5-4.8-1.3-6.9-2.3c-5.7-2.7-10.1-7.2-11.9-13.3c-2.5-8.4-1.1-18.9-1.1-27.6c0-27.7,0-55.5,0-83.2c0-28.5,0-56.9,0-85.4
				c0-7.6,0-15.1,0-22.7c0-0.7,0-1.4,0-2.1c0-0.7-0.3-3.7-0.1-1.5c0.2,1.9,0-1.1-0.1-1.5c-0.1-1.6,0.1-4.2,0.2-5.1
				c0.5-3.7,2-8.4,5-11.7C23.9,15.9,31.5,14.6,38.5,14.5c7.7-0.1,7.7-12.1,0-12C22.7,2.7,8.2,9.6,3.4,25.6
				c-1.3,4.2-1.8,8.9-1.6,13.3c0.1,1,0.1,5.4,0.1,1.7c0,0.3,0,0.7,0,1C1.6,48,2,54.6,2,61.1c0,12.6,0,25.2,0,37.7
				c0,31.6,0,63.2,0,94.9c0,13.2,0,26.3,0,39.5c0,9.4-0.9,19.5,0.7,28.8c3.3,18.4,20.9,28.5,38.5,28.5c14.9,0,29.8,0,44.8,0
				c58.2,0,116.3,0,174.5,0c42.1,0,84.3,0.4,126.4,0c15.8-0.2,28.7-7.8,34.1-22.9c1.8-4.9,2.5-10,2.5-15.1c0-20.5,0-40.9,0-61.4
				c0-31.8,0-63.7,0-95.5c0-12.9,0-25.7,0-38.6c0-10.5,1.3-22.4-2.4-32.3C415,8.6,399.4,2.5,383.4,2.5c-14.2,0-28.4,0-42.6,0
				c-55,0-110.1,0-165.1,0c-43.4,0-86.8,0-130.2,0c-2.3,0-4.7,0-7,0C30.8,2.5,30.8,14.5,38.5,14.5z"/>
		</g>
	</g>
	<g>
		<g>
			<path d="M7.5,236.5c13.6,0,27.2,0,40.7,0c32.6,0,65.2,0,97.8,0c39.5,0,78.9,0,118.4,0c34.1,0,68.3,0,102.4,0
				c16.6,0,33.3,0.7,49.9,0c0.2,0,0.5,0,0.7,0c7.7,0,7.7-12,0-12c-13.6,0-27.2,0-40.7,0c-32.6,0-65.2,0-97.8,0
				c-39.5,0-78.9,0-118.4,0c-34.1,0-68.3,0-102.4,0c-16.6,0-33.3-0.7-49.9,0c-0.2,0-0.5,0-0.7,0C-0.2,224.5-0.2,236.5,7.5,236.5
				L7.5,236.5z"/>
		</g>
	</g>
	<g>
		<g>
			<path d="M118.5,350.5c21.5,0,43,0,64.6,0c34.3,0,68.6,0,102.9,0c7.9,0,15.7,0,23.6,0c7.7,0,7.7-12,0-12c-21.5,0-43,0-64.6,0
				c-34.3,0-68.6,0-102.9,0c-7.9,0-15.7,0-23.6,0C110.8,338.5,110.8,350.5,118.5,350.5L118.5,350.5z"/>
		</g>
	</g>
	<g>
		<g>
			<path d="M207.5,284.5c0,20,0,40,0,60c0,7.7,12,7.7,12,0c0-20,0-40,0-60C219.5,276.8,207.5,276.8,207.5,284.5L207.5,284.5z"/>
		</g>
	</g>
	<g>
		<g>
			<path d="M342.5,261.5c14.3,0,28.7,0,43,0c7.7,0,7.7-12,0-12c-14.3,0-28.7,0-43,0C334.8,249.5,334.8,261.5,342.5,261.5
				L342.5,261.5z"/>
		</g>
	</g>
	<g>
		<g>
			<path d="M34.7,140.7c30.3-30.3,60.6-60.6,90.9-90.9c4.4-4.4,8.7-8.7,13.1-13.1c5.5-5.5-3-14-8.5-8.5
				c-30.3,30.3-60.6,60.6-90.9,90.9c-4.4,4.4-8.7,8.7-13.1,13.1C20.8,137.7,29.3,146.2,34.7,140.7L34.7,140.7z"/>
		</g>
	</g>
	<g>
		<g>
			<path d="M34.7,82.7c15.7-15.7,31.3-31.3,47-47c5.5-5.5-3-14-8.5-8.5c-15.7,15.7-31.3,31.3-47,47C20.8,79.7,29.3,88.2,34.7,82.7
				L34.7,82.7z"/>
		</g>
	</g>
</g>
</svg>
